<?xml version="1.0" encoding="UTF-8" standalone="no"?>
<svg width="19px" height="28px" viewBox="0 0 19 28" version="1.1" xmlns="http://www.w3.org/2000/svg" xmlns:xlink="http://www.w3.org/1999/xlink" xmlns:sketch="http://www.bohemiancoding.com/sketch/ns">
    <!-- Generator: Sketch 3.3.3 (12072) - http://www.bohemiancoding.com/sketch -->
    <title>account</title>
    <desc>Created with Sketch.</desc>
    <defs>
        <path d="M9.3629,10.613 C12.2878,10.613 14.6664,8.236 14.6664,5.306 C14.6664,2.376 12.2878,0 9.3629,0 C6.428,0 4.052,2.376 4.052,5.306 C4.052,8.236 6.428,10.613 9.3629,10.613 L9.3629,10.613 Z M14.0669,10.382 C12.8298,11.53 11.1782,12.238 9.3629,12.238 C7.5345,12.238 5.8754,11.523 4.6358,10.365 C1.8678,11.985 0,14.981 0,18.411 L0,28 L18.6565,28 L18.6565,18.411 C18.6565,16.459 18.0576,14.586 16.9249,12.997 C16.1573,11.922 15.1777,11.036 14.0669,10.382 L14.0669,10.382 Z" id="path-1"></path>
    </defs>
    <g id="Page-1" stroke="none" stroke-width="1" fill="none" fill-rule="evenodd" sketch:type="MSPage">
        <g id="Icons" sketch:type="MSArtboardGroup" transform="translate(-16.000000, -113.000000)">
            <g id="Account" sketch:type="MSLayerGroup" transform="translate(16.000000, 113.000000)">
                <g id="account">
                    <mask id="mask-2" sketch:name="Clip 37" fill="white">
                        <use xlink:href="#path-1"></use>
                    </mask>
                    <g id="Clip-37"></g>
                    <path d="M-5,-5 L23.6565,-5 L23.6565,33 L-5,33 L-5,-5 Z" id="Fill-36" fill="#000000" sketch:type="MSShapeGroup" mask="url(#mask-2)"></path>
                </g>
            </g>
        </g>
    </g>
</svg>