<?xml version="1.0" encoding="UTF-8" standalone="no"?>
<svg width="51px" height="357px" viewBox="0 0 51 357" version="1.1" xmlns="http://www.w3.org/2000/svg" xmlns:xlink="http://www.w3.org/1999/xlink" xmlns:sketch="http://www.bohemiancoding.com/sketch/ns">
    <!-- Generator: Sketch 3.3.2 (12043) - http://www.bohemiancoding.com/sketch -->
    <title>Icons</title>
    <desc>Created with Sketch.</desc>
    <defs></defs>
    <g id="Design-Phase" stroke="none" stroke-width="1" fill="none" fill-rule="evenodd" sketch:type="MSPage">
        <g id="Icons" sketch:type="MSArtboardGroup" fill="#000000">
            <g id="Group" sketch:type="MSLayerGroup" transform="translate(12.000000, 17.000000)">
                <path d="M3,3 L24,3 L24,0 L3,0 L3,3 Z M3,10 L24,10 L24,7 L3,7 L3,10 Z M3,17 L24,17 L24,14 L3,14 L3,17 Z" id="iOS-Menu-2" sketch:type="MSShapeGroup"></path>
                <path d="M13.8821686,49 C18.0842163,49 21.8666667,52.433512 21.8666667,56.6695898 C21.8666667,60.7290466 13.7933897,70 13.7933897,70 C13.7933897,70 6,60.5976406 6,56.6695898 C6,52.433512 9.68012094,49 13.8821686,49 Z M14.1666667,61.1333333 C16.6151292,61.1333333 18.6,59.1484625 18.6,56.7 C18.6,54.2515375 16.6151292,52.2666667 14.1666667,52.2666667 C11.7182042,52.2666667 9.73333333,54.2515375 9.73333333,56.7 C9.73333333,59.1484625 11.7182042,61.1333333 14.1666667,61.1333333 Z" id="map-Pin" sketch:type="MSShapeGroup"></path>
                <g id="peep" transform="translate(8.000000, 102.000000)" sketch:type="MSShapeGroup">
                    <rect id="Rectangle-5" x="2.13921902" y="0" width="7.48726655" height="7.48726655" rx="2"></rect>
                    <rect id="Rectangle-5-Copy" x="0" y="8.55687606" width="11.7657046" height="11.7657046" rx="4"></rect>
                </g>
                <path d="M21.529875,215.91588 L24,207.696778 L7.301325,207.696778 L6.610425,203 L3,203 L3,205.539471 L4.6149,205.539471 L6.558975,220.11916 C6.5868,221.104085 7.50975,221.9 8.6469,221.9 C9.784575,221.9 10.705425,221.104085 10.70595,220.11916 L17.410725,220.11916 C17.412825,221.104085 18.33315,221.9 19.470825,221.9 C20.606925,221.9 21.529875,221.104085 21.529875,220.11916 L22.4187,220.11916 L22.4187,218.058688 L8.880525,218.025547 L8.50725,215.91588 L21.529875,215.91588 Z" id="Cart-2-Copy" sketch:type="MSShapeGroup"></path>
                <path d="M23.9856454,171.917514 L18.3056393,166.691909 C20.3273843,163.743691 19.9483779,159.802499 17.1561749,157.234193 C15.537195,155.744211 13.4153244,154.99948 11.2928881,155 C9.17045178,155 7.04801548,155.744211 5.42846988,157.234193 C2.19051004,160.213636 2.19051004,165.043717 5.42846988,168.023161 C7.04801548,169.512622 9.17045178,170.257873 11.2923224,170.257873 C12.8292785,170.257873 14.3634062,169.861308 15.7091621,169.080147 L21.3908652,174.306794 L23.9856454,171.917514 L23.9856454,171.917514 Z M7.84486758,165.873125 C5.92248098,164.10541 5.92248098,161.227527 7.84486758,159.459256 C8.77587265,158.602889 10.0147977,158.130831 11.3322121,158.130831 C12.6490228,158.130831 13.8867403,158.602889 14.8183491,159.459256 C15.749958,160.315623 16.2631579,161.45467 16.2631579,162.666468 C16.2631579,163.877712 15.749958,165.016758 14.8183491,165.873125 C13.8873441,166.730048 12.6490228,167.202105 11.3316084,167.202105 C10.0147977,167.202105 8.77587265,166.730048 7.84486758,165.873125 L7.84486758,165.873125 Z" id="iOS-Search-Copy" sketch:type="MSShapeGroup"></path>
                <path d="M24.8823719,310.653865 L22.6656065,310.653865 L22.6656065,303.611973 L21.0574507,302 L1.60888387,302 L0,303.611973 L0,317.287838 L0.661753592,318.919514 L7.88425897,324.769757 L7.88425897,319.631 L10.1279604,319.631 L10.1279604,322.926459 L11.4085154,324.210784 L19.8846398,324.210784 L19.8846398,328.275378 L25.6314857,323.623351 L26.2226231,322.19673 L26.2226231,311.93673 L24.8823719,310.653865 L24.8823719,310.653865 Z M5.58377343,317.325054 L5.58377343,319.950622 L2.6171663,317.439622 L2.30048553,316.618676 L2.30048553,304.965622 L2.99791121,304.305946 L19.8860958,304.305946 L20.364393,304.881703 L20.364393,310.653865 L12.1372452,310.653865 L10.1279604,312.728486 L10.1279604,317.325054 L5.58377343,317.325054 L5.58377343,317.325054 Z M23.7634332,322.070486 L22.1858534,323.454784 L22.1858534,321.904838 L12.7655107,321.904838 L12.4284459,321.566973 L12.4284459,313.403486 L12.7655107,312.959811 L23.5494007,312.959811 L23.9221376,313.403486 L23.9221376,321.635568 L23.7634332,322.070486 L23.7634332,322.070486 Z" id="Chat" sketch:type="MSShapeGroup"></path>
                <path d="M13.4820321,256 C9.35003942,256 6,259.358084 6,263.500417 C6,267.642333 9.35003942,271 13.4820321,271 C17.6140249,271 20.9644804,267.642333 20.9644804,263.500417 C20.9644804,259.358084 17.6140249,256 13.4820321,256 L13.4820321,256 Z M17.0008017,267.026417 C16.7038444,267.324528 16.2225102,267.324528 15.9255529,267.026417 L13.4823465,264.577646 L11.0391401,267.026417 C10.7421829,267.324528 10.2608487,267.324528 9.9634666,267.026417 C9.66650932,266.728731 9.66735899,266.246217 9.96389143,265.948531 L12.4070978,263.49976 L9.96431626,261.050989 C9.66778382,260.75373 9.66778382,260.27079 9.96474109,259.973104 C10.2616984,259.675419 10.7426077,259.675845 11.039565,259.973104 L13.4823465,262.421875 L15.9251281,259.973104 C16.2216606,259.675845 16.7029947,259.675419 16.999952,259.973104 C17.2969093,260.27079 17.2969093,260.75373 17.0003768,261.050989 L14.5575953,263.49976 L17.0008017,265.948531 C17.2973341,266.246217 17.2977589,266.728731 17.0008017,267.026417 L17.0008017,267.026417 Z" id="Delete" sketch:type="MSShapeGroup"></path>
            </g>
        </g>
    </g>
</svg>