<?xml version="1.0" encoding="UTF-8" standalone="no"?>
<svg width="22px" height="28px" viewBox="0 0 22 28" version="1.1" xmlns="http://www.w3.org/2000/svg" xmlns:xlink="http://www.w3.org/1999/xlink" xmlns:sketch="http://www.bohemiancoding.com/sketch/ns">
    <!-- Generator: Sketch 3.3.3 (12072) - http://www.bohemiancoding.com/sketch -->
    <title>location</title>
    <desc>Created with Sketch.</desc>
    <defs>
        <path d="M10.5096,0 C16.1123,0 21.1556,4.578 21.1556,10.226 C21.1556,15.639 10.3912,28 10.3912,28 C10.3912,28 0,15.464 0,10.226 C0,4.578 4.9068,0 10.5096,0 L10.5096,0 Z M10.8889,16.178 C14.1535,16.178 16.8,13.531 16.8,10.267 C16.8,7.002 14.1535,4.356 10.8889,4.356 C7.6243,4.356 4.9778,7.002 4.9778,10.267 C4.9778,13.531 7.6243,16.178 10.8889,16.178 L10.8889,16.178 Z" id="path-1"></path>
    </defs>
    <g id="Page-1" stroke="none" stroke-width="1" fill="none" fill-rule="evenodd" sketch:type="MSPage">
        <g id="Icons" sketch:type="MSArtboardGroup" transform="translate(-15.000000, -62.000000)">
            <g id="Location" sketch:type="MSLayerGroup" transform="translate(15.000000, 62.000000)">
                <g id="location">
                    <mask id="mask-2" sketch:name="Clip 16" fill="white">
                        <use xlink:href="#path-1"></use>
                    </mask>
                    <g id="Clip-16"></g>
                    <path d="M-5,-5 L26.1556,-5 L26.1556,33 L-5,33 L-5,-5 Z" id="Fill-15" fill="#000000" sketch:type="MSShapeGroup" mask="url(#mask-2)"></path>
                </g>
            </g>
        </g>
    </g>
</svg>